<svg width="25px" height="25px" viewBox="0 0 24 24" fill="none" xmlns="http://www.w3.org/2000/svg">

<g id="SVGRepo_bgCarrier" stroke-width="0"/>

<g id="SVGRepo_tracerCarrier" stroke-linecap="round" stroke-linejoin="round"/>

<g id="SVGRepo_iconCarrier"> <path d="M 12.8 9 C 12.8 8.6 12.4 8.3 12 8.3 C 11.6 8.3 11.3 8.6 11.3 9 L 11.3 11.3 H 9 C 8.6 11.3 8.3 11.6 8.3 12 C 8.3 12.4 8.6 12.8 9 12.8 H 11.3 V 15 C 11.3 15.4 11.6 15.8 12 15.8 C 12.4 15.8 12.8 15.4 12.8 15 L 12.8 12.8 H 15 C 15.4 12.8 15.8 12.4 15.8 12 C 15.8 11.6 15.4 11.3 15 11.3 H 12.8 V 9 Z" fill="url(#grad)"/> <path fill-rule="evenodd" clip-rule="evenodd" d="M 12 1.3 C 6.1 1.3 1.3 6.1 1.3 12 C 1.3 17.9 6.1 22.8 12 22.8 C 17.9 22.8 22.8 17.9 22.8 12 C 22.8 6.1 17.9 1.3 12 1.3 Z M 2.8 12 C 2.8 6.9 6.9 2.8 12 2.8 C 17.1 2.8 21.3 6.9 21.3 12 C 21.3 17.1 17.1 21.3 12 21.3 C 6.9 21.3 2.8 17.1 2.8 12 Z" fill="url(#grad)"/> </g>
  <defs>
    <linearGradient id="grad" x1="50%" y1="-15%" x2="110%" y2="50%">
      <stop offset="0%" style="stop-color: rgb(213, 30, 94); stop-opacity: 1" />
      <stop offset="100%" style="stop-color: rgb(142, 56, 253); stop-opacity: 1" />
    </linearGradient>
  </defs>
</svg>