<?xml version="1.0" encoding="utf-8"?><!-- Uploaded to: SVG Repo, www.svgrepo.com, Generator: SVG Repo Mixer Tools -->
<svg width="30px" height="30px" viewBox="0 0 24 24" fill="none" xmlns="http://www.w3.org/2000/svg">
<path fill="rgb(197, 32, 63)" fill-rule="evenodd" clip-rule="evenodd" d="M 9.5 4 C 8.3 4 7 4.6 6.3 5.7 L 3 10.3 C 2.3 11.3 2.3 12.7 3 13.7 L 6.3 18.3 C 7 19.4 8.3 20 9.5 20 H 18 C 20.2 20 22 18.2 22 16 V 8 C 22 5.8 20.2 4 18 4 H 9.5 Z M 10.3 8.3 C 10.7 7.9 11.3 7.9 11.7 8.3 L 14 10.6 L 16.3 8.3 C 16.7 7.9 17.3 7.9 17.7 8.3 C 18.1 8.7 18.1 9.3 17.7 9.7 L 15.4 12 L 17.7 14.3 C 18.1 14.7 18.1 15.3 17.7 15.7 C 17.3 16.1 16.7 16.1 16.3 15.7 L 14 13.4 L 11.7 15.7 C 11.3 16.1 10.7 16.1 10.3 15.7 C 9.9 15.3 9.9 14.7 10.3 14.3 L 12.6 12 L 10.3 9.7 C 9.9 9.3 9.9 8.7 10.3 8.3 Z"/>
</svg>