<?xml version="1.0" encoding="utf-8"?><!-- Uploaded to: SVG Repo, www.svgrepo.com, Generator: SVG Repo Mixer Tools -->
<svg width="30px" height="30px" viewBox="0 0 24 24" fill="none" xmlns="http://www.w3.org/2000/svg">
<path stroke="url(#grad)" d="M 12 4 H 6 C 4.9 4 4 4.9 4 6 V 18 C 4 19.1 4.9 20 6 20 H 18 C 19.1 20 20 19.1 20 18 V 12 M 18.4 8.4 L 19.5 7.3 C 20.3 6.5 20.3 5.3 19.5 4.5 C 18.7 3.7 17.5 3.7 16.7 4.5 L 15.6 5.6 M 18.4 8.4 L 12.4 14.5 C 12.1 14.7 11.7 14.9 11.4 15 L 8.4 15.6 L 9 12.6 C 9.1 12.3 9.3 11.9 9.5 11.6 L 15.6 5.6 M 18.4 8.4 L 15.6 5.6" stroke-width="2" stroke-linecap="round" stroke-linejoin="round"/>
  <defs>
    <linearGradient id="grad" x1="50%" y1="-15%" x2="110%" y2="50%">
      <stop offset="0%" style="stop-color: rgb(213, 30, 94); stop-opacity: 1" />
      <stop offset="100%" style="stop-color: rgb(142, 56, 253); stop-opacity: 1" />
    </linearGradient>
  </defs>
</svg>