<?xml version="1.0" encoding="utf-8"?><!-- Uploaded to: SVG Repo, www.svgrepo.com, Generator: SVG Repo Mixer Tools -->
<svg width="20px" height="20px" viewBox="0 0 24 24" fill="none" xmlns="http://www.w3.org/2000/svg">
<path fill-rule="evenodd" clip-rule="evenodd" d="M 18.2 1 C 18.7 1 19.2 1.2 19.6 1.6 L 22.4 4.4 C 22.8 4.8 23 5.3 23 5.8 V 20 C 23 21.7 21.7 23 20 23 H 4 C 2.3 23 1 21.7 1 20 V 4 C 1 2.3 2.3 1 4 1 H 18.2 Z M 4 3 C 3.4 3 3 3.4 3 4 V 20 C 3 20.6 3.4 21 4 21 L 5 21 L 5 15 C 5 13.3 6.3 12 8 12 L 16 12 C 17.7 12 19 13.3 19 15 V 21 H 20 C 20.6 21 21 20.6 21 20 V 6.8 C 21 6.3 20.8 5.8 20.4 5.4 L 18.6 3.6 C 18.2 3.2 17.7 3 17.2 3 H 17 V 5 C 17 6.7 15.7 8 14 8 H 10 C 8.3 8 7 6.7 7 5 V 3 H 4 Z M 17 21 V 15 C 17 14.4 16.6 14 16 14 L 8 14 C 7.4 14 7 14.4 7 15 L 7 21 L 17 21 Z M 9 3 H 15 V 5 C 15 5.6 14.6 6 14 6 H 10 C 9.4 6 9 5.6 9 5 V 3 Z" fill="url(#grad)"/>
  <defs>
    <linearGradient id="grad" x1="50%" y1="-15%" x2="110%" y2="50%">
      <stop offset="0%" style="stop-color:rgb(213, 30, 94);stop-opacity:1" />
      <stop offset="100%" style="stop-color:rgb(142, 56, 253);stop-opacity:1" />
    </linearGradient>
  </defs>
</svg>